PathFileType	4	(X/Y/Z)	D:\TRACE\v60_Jaco2_6-2-23\JustBodyDRS_Motion3_3-v60.trc
DataRate	CameraRate	NumFrames	NumMarkers	Units	OrigDataRate	OrigDataStartFrame	OrigNumFrames
100.00	100.00	      21	9	mm	100.00	876	      7000
Frame#	Time	front left toe			Front right toe			aft left toe			aft right toe			Arm			FL body			FR body			AL Body			AR Body			
		X1	Y1	Z1	X2	Y2	Z2	X3	Y3	Z3	X4	Y4	Z4	X5	Y5	Z5	X6	Y6	Z6	X7	Y7	Z7	X8	Y8	Z8	X9	Y9	Z9	

876	8.750	-231.73026	14.52232	-140.68735	184.68797	10.22046	-105.94841	-198.30281	38.94590	516.58868	139.46547	36.85253	481.45883	-13.79183	1199.85413	-168.80678	-95.73149	564.21808	-266.42462	63.11040	563.96558	-265.13876	-96.25619	580.31818	678.03107	54.38401	570.19305	678.33478	
877	8.760	-231.83812	10.29912	-143.28163	184.52672	10.16669	-106.11800	-198.34325	38.92663	516.39679	140.33945	35.29464	482.56546	-13.25543	1200.01831	-169.69736	-96.41170	564.11145	-267.99683	62.25352	563.85077	-266.26154	-97.97270	581.23627	676.44666	52.21147	570.77789	677.07697	
878	8.770	-233.07478	11.01592	-143.66614	184.48535	10.16384	-106.09108	-198.33676	39.21945	516.24371	140.97623	36.47443	481.83386	-12.01359	1199.66125	-171.41243	-96.42857	564.07208	-269.41458	62.54562	563.79651	-267.43576	-99.67276	582.56140	675.25800	50.81298	572.47522	675.84064	
879	8.780	-233.21094	9.09096	-143.32874	184.19412	10.38853	-106.90009	-198.08014	39.58819	515.54401	140.02286	37.25510	483.24338	-12.38189	1200.10107	-174.14093	-96.66315	565.01508	-270.51080	62.02021	564.39569	-268.64261	-101.40643	584.21399	673.71216	49.39266	573.64972	674.74506	
880	8.790	-232.94543	8.93854	-142.97862	184.23970	13.76071	-105.73644	-198.77116	42.40751	515.26355	139.30275	36.44383	482.76578	-12.53570	1201.05981	-176.98897	-97.05633	566.40985	-271.83643	62.04646	565.04504	-269.55469	-103.10542	584.91052	672.82990	47.76099	574.18091	673.55090	
881	8.800	-233.07903	8.52959	-143.96948	179.72568	17.00214	-103.35603	-196.75298	44.84733	516.91754	139.43056	35.95611	482.17358	-12.39914	1201.70447	-179.14107	-96.94105	567.40619	-273.05548	61.46537	566.47424	-270.35577	-104.36269	585.27008	671.61499	46.43116	574.44672	672.68317	
882	8.810	-233.09050	8.50459	-144.29408	175.55156	24.51402	-101.83298	-194.60214	52.90684	516.99109	139.79175	36.45009	482.22266	-12.09994	1202.11316	-180.01045	-97.20435	567.94507	-274.38007	61.64247	566.99426	-271.57855	-105.76396	585.46234	670.20038	44.95597	575.68866	672.27435	
883	8.820	-233.09756	8.46286	-144.26654	172.36563	33.04752	-101.78378	-192.24585	62.95690	515.70306	139.29666	36.44878	482.04813	-12.07801	1202.57434	-179.91394	-97.18149	568.07501	-275.12637	61.39543	567.17120	-272.46429	-107.03693	586.23151	669.19739	43.94360	576.36115	671.25269	
884	8.830	-233.01456	8.15340	-144.13072	172.67050	45.60971	-103.38624	-191.44310	75.23632	513.41498	139.21419	36.79713	482.14493	-12.02408	1203.14368	-179.66772	-97.73098	568.30139	-276.40561	60.80245	567.15082	-273.14893	-107.61639	586.79047	668.28705	43.19426	576.76324	670.90979	
885	8.840	-232.98187	8.09428	-144.14151	174.12633	58.75790	-106.25129	-192.55341	87.52573	510.64963	139.52887	36.61081	482.30136	-12.11716	1203.58716	-179.94106	-97.96664	568.18195	-277.00034	60.32999	567.04266	-273.94885	-108.40665	586.66809	667.32263	42.34467	576.88654	669.72418	
886	8.850	-232.92862	8.08103	-144.02937	175.37206	72.37644	-109.81918	-196.66225	99.99338	507.18732	139.65182	36.14778	482.21030	-12.23648	1203.37622	-180.93590	-98.57053	568.32269	-277.53458	59.92559	567.33856	-274.46103	-108.53717	586.04608	666.83350	42.18464	576.47656	669.22687	
887	8.860	-232.94690	7.83090	-144.16879	176.37598	85.83692	-113.94800	-200.87796	112.13126	503.18710	139.79572	36.04396	482.22324	-13.24255	1202.94702	-181.83099	-99.20527	568.49731	-278.22073	59.53405	567.56201	-274.95480	-108.62655	585.25360	666.54614	41.72222	575.55090	668.50171	
888	8.870	-233.02528	7.73891	-144.00668	177.20956	99.21791	-117.37225	-203.99985	124.11381	499.33588	139.90314	35.94198	482.25046	-14.81824	1202.45325	-182.16496	-99.65873	568.53180	-278.52368	58.81749	567.68158	-275.66235	-108.59924	584.76880	665.99738	41.72260	575.35272	668.44232	
889	8.880	-233.02098	7.70328	-143.90178	177.26671	111.70860	-120.86662	-206.13580	136.19951	495.56854	139.96754	35.89918	482.23764	-16.70725	1202.59045	-182.13994	-99.74079	568.38220	-278.64575	58.65082	567.86371	-276.39093	-108.51688	584.49127	665.58716	41.96803	575.07538	668.10309	
890	8.890	-232.99678	7.64574	-143.95323	176.21211	123.39235	-124.29635	-207.29797	147.59706	492.24152	140.14325	35.87523	482.23523	-18.25395	1203.15063	-181.62047	-100.16060	568.43268	-279.00769	58.23878	567.92834	-276.60486	-108.46880	584.18616	665.40845	42.10892	574.85669	667.51776	
891	8.900	-233.01018	7.58520	-144.01262	175.14709	134.04321	-127.42252	-208.89912	158.37065	489.63705	140.35515	35.83833	482.17468	-19.44420	1203.61182	-181.11508	-100.66026	568.51550	-279.29984	58.12788	567.97943	-276.72260	-108.35002	583.99261	665.34479	42.34482	574.68463	667.23547	
892	8.910	-233.00121	7.62516	-143.92046	173.93021	142.47359	-130.36388	-209.54723	166.14159	487.15680	140.57904	35.85205	482.16965	-19.73435	1203.55640	-180.96805	-101.08365	568.57062	-279.46896	57.94791	567.96851	-276.79950	-108.28984	583.61151	665.28687	42.94204	574.54535	667.39288	
893	8.920	-232.99486	7.56434	-143.77357	173.52293	147.50870	-131.96198	-210.29407	171.00102	485.55948	140.64578	35.78923	482.06985	-19.69048	1203.31128	-180.88495	-101.39494	568.39685	-278.96530	57.16726	568.14807	-276.68506	-108.05105	583.24219	665.23175	42.49789	573.73474	666.52350	
894	8.930	-232.92859	7.50678	-143.68675	173.02142	150.15529	-133.24176	-211.57845	172.89609	484.38504	140.77499	35.83316	482.14087	-19.71966	1203.30029	-180.89612	-101.85904	568.57330	-278.78915	56.44973	568.35870	-276.72110	-107.91572	582.95648	665.46344	42.94270	573.49097	666.56897	
895	8.940	-232.86217	7.50884	-143.66394	172.56485	149.49448	-133.94514	-213.16946	172.68835	483.89218	140.77420	35.62972	481.86908	-19.70358	1203.41821	-180.70638	-102.39068	568.89478	-278.67303	55.80047	568.64624	-276.64508	-107.73894	582.84644	665.79297	45.19318	572.60883	665.91736	
896	8.950	-232.78944	7.47478	-143.61603	171.56635	146.46782	-134.28221	-214.98802	170.19208	483.86972	140.77512	35.60468	481.82089	-20.39468	1203.65808	-180.29192	-102.86183	568.97565	-278.64938	55.37469	568.91101	-276.42896	-107.22775	582.72552	666.09418	45.04050	572.21857	666.14197	
